<?xml version="1.0" encoding="UTF-8"?>
<svg version="1.1" xmlns="http://www.w3.org/2000/svg" width="16" height="16">
<path d="M0 0 C5.28 0 10.56 0 16 0 C16 5.28 16 10.56 16 16 C10.72 16 5.44 16 0 16 C0 10.72 0 5.44 0 0 Z " fill="#202020" transform="translate(0,0)"/>
<path d="M0 0 C5.28 0 10.56 0 16 0 C16 2.97 16 5.94 16 9 C15.34 8.01 14.68 7.02 14 6 C11.5 5.58333333 11.5 5.58333333 9 6 C8.34 6.66 7.68 7.32 7 8 C7 7.01 7 6.02 7 5 C4.00675737 6.0975223 3.15389099 6.67682892 1.75 9.625 C1.5025 10.40875 1.255 11.1925 1 12 C0.67 12 0.34 12 0 12 C0 8.04 0 4.08 0 0 Z " fill="#1E1E1E" transform="translate(0,0)"/>
<path d="M0 0 C1.1446875 0.2784375 1.1446875 0.2784375 2.3125 0.5625 C5.08967375 1.22819173 5.08967375 1.22819173 8 0 C10.1875 0.4375 10.1875 0.4375 12 1 C11.67 2.65 11.34 4.3 11 6 C10.443125 5.814375 9.88625 5.62875 9.3125 5.4375 C6.96712418 4.84408398 6.96712418 4.84408398 4.5 5.5 C1.90177093 6.01964581 0.4799699 5.82665663 -2 5 C-1.34 3.35 -0.68 1.7 0 0 Z " fill="#D8D6D7" transform="translate(3,5)"/>
<path d="M0 0 C0.99 0.33 1.98 0.66 3 1 C3 2.65 3 4.3 3 6 C1.35 6 -0.3 6 -2 6 C-1.34 4.02 -0.68 2.04 0 0 Z " fill="#BEBDBE" transform="translate(3,5)"/>
</svg>
